{
  "accessors": [
    {
      "bufferView": 2,
      "componentType": 5126,
      "count": 39,
      "max": [
        1.387529969215393,
        1.6878000497817993,
        1.669700026512146
      ],
      "min": [
        -1.376479983329773,
        0.0005890000029467046,
        -3.375030040740967
      ],
      "type": "VEC3"
    },
    {
      "bufferView": 2,
      "byteOffset": 468,
      "componentType": 5126,
      "count": 39,
      "max": [
        0.9644638895988464,
        1.0,
        0.7386581897735596
      ],
      "min": [
        -0.9644638895988464,
        0.0,
        -0.7386581897735596
      ],
      "type": "VEC3"
    },
    {
      "bufferView": 1,
      "componentType": 5126,
      "count": 39,
      "max": [
        0.9998815655708313,
        0.9998190402984619
      ],
      "min": [
        0.00011831521987915039,
        0.28191471099853516
      ],
      "type": "VEC2"
    },
    {
      "bufferView": 1,
      "byteOffset": 312,
      "componentType": 5126,
      "count": 39,
      "max": [
        0.9998815655708313,
        0.9998190402984619
      ],
      "min": [
        0.00011831521987915039,
        0.28191471099853516
      ],
      "type": "VEC2"
    },
    {
      "bufferView": 1,
      "byteOffset": 624,
      "componentType": 5126,
      "count": 39,
      "max": [
        0.9998815655708313,
        0.9998190402984619
      ],
      "min": [
        0.00011831521987915039,
        0.28191471099853516
      ],
      "type": "VEC2"
    },
    {
      "bufferView": 1,
      "byteOffset": 936,
      "componentType": 5126,
      "count": 39,
      "max": [
        0.9998815655708313,
        0.9998190402984619
      ],
      "min": [
        0.00011831521987915039,
        0.28191471099853516
      ],
      "type": "VEC2"
    },
    {
      "bufferView": 1,
      "byteOffset": 1248,
      "componentType": 5126,
      "count": 39,
      "max": [
        0.9998815655708313,
        0.9998190402984619
      ],
      "min": [
        0.00011831521987915039,
        0.28191471099853516
      ],
      "type": "VEC2"
    },
    {
      "bufferView": 1,
      "byteOffset": 1560,
      "componentType": 5126,
      "count": 39,
      "max": [
        0.9998815655708313,
        0.9998190402984619
      ],
      "min": [
        0.00011831521987915039,
        0.28191471099853516
      ],
      "type": "VEC2"
    },
    {
      "bufferView": 1,
      "byteOffset": 1872,
      "componentType": 5126,
      "count": 39,
      "max": [
        0.9998815655708313,
        0.9998190402984619
      ],
      "min": [
        0.00011831521987915039,
        0.28191471099853516
      ],
      "type": "VEC2"
    },
    {
      "bufferView": 1,
      "byteOffset": 2184,
      "componentType": 5126,
      "count": 39,
      "max": [
        0.9998815655708313,
        0.9998190402984619
      ],
      "min": [
        0.00011831521987915039,
        0.28191471099853516
      ],
      "type": "VEC2"
    },
    {
      "bufferView": 1,
      "byteOffset": 2496,
      "componentType": 5126,
      "count": 39,
      "max": [
        0.9998815655708313,
        0.9998190402984619
      ],
      "min": [
        0.00011831521987915039,
        0.28191471099853516
      ],
      "type": "VEC2"
    },
    {
      "bufferView": 0,
      "componentType": 5125,
      "count": 216,
      "type": "SCALAR"
    },
    {
      "bufferView": 2,
      "byteOffset": 936,
      "componentType": 5126,
      "count": 4,
      "max": [
        0.5,
        0.5,
        0.0
      ],
      "min": [
        -0.5,
        -0.5,
        0.0
      ],
      "type": "VEC3"
    },
    {
      "bufferView": 2,
      "byteOffset": 984,
      "componentType": 5126,
      "count": 4,
      "max": [
        0.0,
        0.0,
        1.0
      ],
      "min": [
        0.0,
        0.0,
        1.0
      ],
      "type": "VEC3"
    },
    {
      "bufferView": 1,
      "byteOffset": 2808,
      "componentType": 5126,
      "count": 4,
      "max": [
        1.0,
        1.0
      ],
      "min": [
        0.0,
        0.0
      ],
      "type": "VEC2"
    },
    {
      "bufferView": 1,
      "byteOffset": 2840,
      "componentType": 5126,
      "count": 4,
      "max": [
        1.0,
        1.0
      ],
      "min": [
        0.0,
        0.0
      ],
      "type": "VEC2"
    },
    {
      "bufferView": 1,
      "byteOffset": 2872,
      "componentType": 5126,
      "count": 4,
      "max": [
        1.0,
        1.0
      ],
      "min": [
        0.0,
        0.0
      ],
      "type": "VEC2"
    },
    {
      "bufferView": 1,
      "byteOffset": 2904,
      "componentType": 5126,
      "count": 4,
      "max": [
        1.0,
        1.0
      ],
      "min": [
        0.0,
        0.0
      ],
      "type": "VEC2"
    },
    {
      "bufferView": 1,
      "byteOffset": 2936,
      "componentType": 5126,
      "count": 4,
      "max": [
        1.0,
        1.0
      ],
      "min": [
        0.0,
        0.0
      ],
      "type": "VEC2"
    },
    {
      "bufferView": 1,
      "byteOffset": 2968,
      "componentType": 5126,
      "count": 4,
      "max": [
        1.0,
        1.0
      ],
      "min": [
        0.0,
        0.0
      ],
      "type": "VEC2"
    },
    {
      "bufferView": 1,
      "byteOffset": 3000,
      "componentType": 5126,
      "count": 4,
      "max": [
        1.0,
        1.0
      ],
      "min": [
        0.0,
        0.0
      ],
      "type": "VEC2"
    },
    {
      "bufferView": 1,
      "byteOffset": 3032,
      "componentType": 5126,
      "count": 4,
      "max": [
        1.0,
        1.0
      ],
      "min": [
        0.0,
        0.0
      ],
      "type": "VEC2"
    },
    {
      "bufferView": 1,
      "byteOffset": 3064,
      "componentType": 5126,
      "count": 4,
      "max": [
        1.0,
        1.0
      ],
      "min": [
        0.0,
        0.0
      ],
      "type": "VEC2"
    },
    {
      "bufferView": 1,
      "byteOffset": 3096,
      "componentType": 5126,
      "count": 4,
      "max": [
        1.0,
        1.0
      ],
      "min": [
        0.0,
        0.0
      ],
      "type": "VEC2"
    },
    {
      "bufferView": 0,
      "byteOffset": 864,
      "componentType": 5125,
      "count": 6,
      "type": "SCALAR"
    },
    {
      "bufferView": 2,
      "byteOffset": 1032,
      "componentType": 5126,
      "count": 3202,
      "max": [
        155.15060424804688,
        74.39350128173828,
        155.15060424804688
      ],
      "min": [
        -155.15060424804688,
        -74.24471282958984,
        -155.1505889892578
      ],
      "type": "VEC3"
    },
    {
      "bufferView": 2,
      "byteOffset": 39456,
      "componentType": 5126,
      "count": 3202,
      "max": [
        1.0,
        1.0,
        1.0
      ],
      "min": [
        -1.0,
        -1.0,
        -1.0
      ],
      "type": "VEC3"
    },
    {
      "bufferView": 1,
      "byteOffset": 3128,
      "componentType": 5126,
      "count": 3202,
      "max": [
        0.0,
        0.0
      ],
      "min": [
        0.0,
        0.0
      ],
      "type": "VEC2"
    },
    {
      "bufferView": 0,
      "byteOffset": 888,
      "componentType": 5125,
      "count": 19200,
      "type": "SCALAR"
    }
  ],
  "asset": {
    "extras": {
      "author": "Maxime66410 (https://sketchfab.com/Maxime66410)",
      "license": "CC-BY-4.0 (http://creativecommons.org/licenses/by/4.0/)",
      "source": "https://sketchfab.com/3d-models/button-key-card-reader-scp-v1-v2-387ec7d354ca4268b4d50c75b3bd1713",
      "title": "Button Key Card Reader SCP (V1 & V2)"
    },
    "generator": "Sketchfab-12.66.0",
    "version": "2.0"
  },
  "bufferViews": [
    {
      "buffer": 0,
      "byteLength": 77688,
      "name": "floatBufferViews",
      "target": 34963
    },
    {
      "buffer": 0,
      "byteLength": 28744,
      "byteOffset": 77688,
      "byteStride": 8,
      "name": "floatBufferViews",
      "target": 34962
    },
    {
      "buffer": 0,
      "byteLength": 77880,
      "byteOffset": 106432,
      "byteStride": 12,
      "name": "floatBufferViews",
      "target": 34962
    }
  ],
  "buffers": [
    {
      "byteLength": 184312,
      "uri": "scene.bin"
    }
  ],
  "images": [
    {
      "uri": "textures/Material_106_baseColor.png"
    },
    {
      "uri": "textures/Material_70_baseColor.png"
    },
    {
      "uri": "textures/Material_102_baseColor.png"
    }
  ],
  "materials": [
    {
      "doubleSided": true,
      "name": "Material_106",
      "pbrMetallicRoughness": {
        "baseColorTexture": {
          "index": 0
        },
        "metallicFactor": 0.0
      }
    },
    {
      "doubleSided": true,
      "name": "Material_70",
      "pbrMetallicRoughness": {
        "baseColorFactor": [
          0.3797637195,
          0.3797637195,
          0.3797637195,
          1.0
        ],
        "baseColorTexture": {
          "index": 1
        },
        "metallicFactor": 0.0
      }
    },
    {
      "doubleSided": true,
      "name": "Material_102",
      "pbrMetallicRoughness": {
        "baseColorTexture": {
          "index": 2
        },
        "metallicFactor": 0.0,
        "roughnessFactor": 0.9381616368
      }
    }
  ],
  "meshes": [
    {
      "name": "node_id3_Material_106_0",
      "primitives": [
        {
          "attributes": {
            "NORMAL": 1,
            "POSITION": 0,
            "TEXCOORD_0": 2,
            "TEXCOORD_1": 3,
            "TEXCOORD_2": 4,
            "TEXCOORD_3": 5,
            "TEXCOORD_4": 6,
            "TEXCOORD_5": 7,
            "TEXCOORD_6": 8,
            "TEXCOORD_7": 9,
            "TEXCOORD_8": 10
          },
          "indices": 11,
          "material": 0,
          "mode": 4
        }
      ]
    },
    {
      "name": "root_Material_70_0",
      "primitives": [
        {
          "attributes": {
            "NORMAL": 13,
            "POSITION": 12,
            "TEXCOORD_0": 14,
            "TEXCOORD_1": 15,
            "TEXCOORD_2": 16,
            "TEXCOORD_3": 17,
            "TEXCOORD_4": 18,
            "TEXCOORD_5": 19,
            "TEXCOORD_6": 20,
            "TEXCOORD_7": 21,
            "TEXCOORD_8": 22,
            "TEXCOORD_9": 23
          },
          "indices": 24,
          "material": 1,
          "mode": 4
        }
      ]
    },
    {
      "name": "root_Material_102_0",
      "primitives": [
        {
          "attributes": {
            "NORMAL": 26,
            "POSITION": 25,
            "TEXCOORD_0": 27
          },
          "indices": 28,
          "material": 2,
          "mode": 4
        }
      ]
    }
  ],
  "nodes": [
    {
      "children": [
        1
      ],
      "matrix": [
        1.0,
        0.0,
        0.0,
        0.0,
        0.0,
        2.220446049250313e-16,
        -1.0,
        0.0,
        0.0,
        1.0,
        2.220446049250313e-16,
        0.0,
        0.0,
        0.0,
        0.0,
        1.0
      ],
      "name": "Sketchfab_model"
    },
    {
      "children": [
        2
      ],
      "matrix": [
        1.0,
        0.0,
        0.0,
        0.0,
        0.0,
        0.0,
        1.0,
        0.0,
        0.0,
        -1.0,
        0.0,
        0.0,
        0.0,
        0.0,
        0.0,
        1.0
      ],
      "name": "Button V2.fbx"
    },
    {
      "children": [
        3
      ],
      "name": "RootNode"
    },
    {
      "children": [
        4,
        6,
        9
      ],
      "name": "root"
    },
    {
      "children": [
        5
      ],
      "matrix": [
        0.18523812294006348,
        0.0,
        0.0,
        0.0,
        0.0,
        0.18523812294006348,
        0.0,
        0.0,
        0.0,
        0.0,
        0.18523812294006348,
        0.0,
        -0.00102343934122473,
        -0.15637700259685516,
        0.6251842379570007,
        1.0
      ],
      "name": "node_id3"
    },
    {
      "mesh": 0,
      "name": "node_id3_Material_106_0"
    },
    {
      "children": [
        7
      ],
      "name": "root"
    },
    {
      "children": [
        8
      ],
      "matrix": [
        0.38945960998535156,
        -1.360179746612289e-10,
        -0.0013209014432504773,
        0.0,
        -0.0010705928628854616,
        1.4164001375748574e-08,
        -0.3156576752663974,
        0.0,
        5.01429172613549e-13,
        0.0009999999310821295,
        4.4869694871664855e-11,
        0.0,
        0.0017246089410036802,
        0.08500366657972336,
        0.2406284362077713,
        1.0
      ],
      "name": "Object_7"
    },
    {
      "mesh": 1,
      "name": "root_Material_70_0"
    },
    {
      "children": [
        10
      ],
      "name": "root"
    },
    {
      "children": [
        11
      ],
      "matrix": [
        0.0010209103347733617,
        0.0,
        -0.0,
        0.0,
        0.0,
        0.0005155166145414114,
        0.0,
        0.0,
        0.0,
        0.0,
        0.001051712897606194,
        0.0,
        0.003283493220806122,
        0.1498645544052124,
        0.6267568469047546,
        1.0
      ],
      "name": "Object_10"
    },
    {
      "mesh": 2,
      "name": "root_Material_102_0"
    }
  ],
  "samplers": [
    {
      "magFilter": 9729,
      "minFilter": 9987,
      "wrapS": 10497,
      "wrapT": 10497
    }
  ],
  "scene": 0,
  "scenes": [
    {
      "name": "Sketchfab_Scene",
      "nodes": [
        0
      ]
    }
  ],
  "textures": [
    {
      "sampler": 0,
      "source": 0
    },
    {
      "sampler": 0,
      "source": 1
    },
    {
      "sampler": 0,
      "source": 2
    }
  ]
}
