{
  "accessors": [
    {
      "bufferView": 2,
      "componentType": 5126,
      "count": 9351,
      "max": [
        0.06481499969959259,
        -0.023972999304533005,
        0.013945000246167183
      ],
      "min": [
        -0.044780001044273376,
        -0.13857899606227875,
        -0.08010700345039368
      ],
      "type": "VEC3"
    },
    {
      "bufferView": 2,
      "byteOffset": 112212,
      "componentType": 5126,
      "count": 9351,
      "max": [
        1.0,
        0.9999906420707703,
        0.9999882578849792
      ],
      "min": [
        -1.0,
        -0.9995332360267639,
        -0.9996993541717529
      ],
      "type": "VEC3"
    },
    {
      "bufferView": 1,
      "componentType": 5126,
      "count": 9351,
      "max": [
        0.9885900020599365,
        0.9888089895248413
      ],
      "min": [
        0.005867999978363514,
        0.004838000051677227
      ],
      "type": "VEC2"
    },
    {
      "bufferView": 0,
      "componentType": 5125,
      "count": 39669,
      "type": "SCALAR"
    }
  ],
  "asset": {
    "extras": {
      "author": "djvivid (https://sketchfab.com/djvivid)",
      "license": "CC-BY-4.0 (http://creativecommons.org/licenses/by/4.0/)",
      "source": "https://sketchfab.com/3d-models/andrews-oculus-controller-right-97afd97da756445daf895cc439c46ed6",
      "title": "Andrews Oculus Controller Right"
    },
    "generator": "Sketchfab-12.68.0",
    "version": "2.0"
  },
  "bufferViews": [
    {
      "buffer": 0,
      "byteLength": 158676,
      "name": "floatBufferViews",
      "target": 34963
    },
    {
      "buffer": 0,
      "byteLength": 74808,
      "byteOffset": 158676,
      "byteStride": 8,
      "name": "floatBufferViews",
      "target": 34962
    },
    {
      "buffer": 0,
      "byteLength": 224424,
      "byteOffset": 233484,
      "byteStride": 12,
      "name": "floatBufferViews",
      "target": 34962
    }
  ],
  "buffers": [
    {
      "byteLength": 457908,
      "uri": "scene.bin"
    }
  ],
  "images": [
    {
      "uri": "textures/external_contoller_01blinn1SG_baseColor.png"
    }
  ],
  "materials": [
    {
      "doubleSided": true,
      "name": "external_contoller_01blinn1SG",
      "pbrMetallicRoughness": {
        "baseColorTexture": {
          "index": 0
        },
        "metallicFactor": 0.0
      }
    }
  ],
  "meshes": [
    {
      "name": "Object_0",
      "primitives": [
        {
          "attributes": {
            "NORMAL": 1,
            "POSITION": 0,
            "TEXCOORD_0": 2
          },
          "indices": 3,
          "material": 0,
          "mode": 4
        }
      ]
    }
  ],
  "nodes": [
    {
      "children": [
        1
      ],
      "matrix": [
        1.0,
        0.0,
        0.0,
        0.0,
        0.0,
        2.220446049250313e-16,
        -1.0,
        0.0,
        0.0,
        1.0,
        2.220446049250313e-16,
        0.0,
        0.0,
        0.0,
        0.0,
        1.0
      ],
      "name": "Sketchfab_model"
    },
    {
      "children": [
        2
      ],
      "name": "oculus_cv1_controller_right.obj.cleaner.materialmerger.gles"
    },
    {
      "mesh": 0,
      "name": "Object_2"
    }
  ],
  "samplers": [
    {
      "magFilter": 9729,
      "minFilter": 9987,
      "wrapS": 10497,
      "wrapT": 10497
    }
  ],
  "scene": 0,
  "scenes": [
    {
      "name": "Sketchfab_Scene",
      "nodes": [
        0
      ]
    }
  ],
  "textures": [
    {
      "sampler": 0,
      "source": 0
    }
  ]
}
