{
  "accessors": [
    {
      "bufferView": 2,
      "componentType": 5126,
      "count": 1568,
      "max": [
        3.8925371170043945,
        0.9603559970855713,
        1.4508951902389526
      ],
      "min": [
        -3.8948709964752197,
        -0.9394580721855164,
        -1.4503031969070435
      ],
      "type": "VEC3"
    },
    {
      "bufferView": 2,
      "byteOffset": 18816,
      "componentType": 5126,
      "count": 1568,
      "max": [
        1.0,
        0.9999064207077026,
        0.9999068379402161
      ],
      "min": [
        -1.0,
        -0.9999062418937683,
        -0.9999068379402161
      ],
      "type": "VEC3"
    },
    {
      "bufferView": 1,
      "componentType": 5126,
      "count": 1568,
      "max": [
        1.0,
        1.0
      ],
      "min": [
        0.0,
        0.0
      ],
      "type": "VEC2"
    },
    {
      "bufferView": 0,
      "componentType": 5125,
      "count": 2736,
      "type": "SCALAR"
    },
    {
      "bufferView": 2,
      "byteOffset": 37632,
      "componentType": 5126,
      "count": 304,
      "max": [
        3.887214183807373,
        0.9603559970855713,
        1.4508951902389526
      ],
      "min": [
        -3.8895480632781982,
        -0.9394580721855164,
        -1.4503031969070435
      ],
      "type": "VEC3"
    },
    {
      "bufferView": 2,
      "byteOffset": 41280,
      "componentType": 5126,
      "count": 304,
      "max": [
        1.0,
        3.918004040315282e-06,
        6.683323590550572e-06
      ],
      "min": [
        -1.0,
        -7.000572622928303e-06,
        -9.165031769953202e-06
      ],
      "type": "VEC3"
    },
    {
      "bufferView": 1,
      "byteOffset": 12544,
      "componentType": 5126,
      "count": 304,
      "max": [
        0.9900000095367432,
        0.49000000953674316
      ],
      "min": [
        0.0,
        0.0
      ],
      "type": "VEC2"
    },
    {
      "bufferView": 0,
      "byteOffset": 10944,
      "componentType": 5125,
      "count": 816,
      "type": "SCALAR"
    },
    {
      "bufferView": 2,
      "byteOffset": 44928,
      "componentType": 5126,
      "count": 1936,
      "max": [
        3.8983421325683594,
        1.560539722442627,
        1.5487239360809326
      ],
      "min": [
        -3.9006764888763428,
        -2.1394612789154053,
        -1.5481319427490234
      ],
      "type": "VEC3"
    },
    {
      "bufferView": 2,
      "byteOffset": 68160,
      "componentType": 5126,
      "count": 1936,
      "max": [
        1.0,
        1.0,
        1.0
      ],
      "min": [
        -1.0,
        -1.0,
        -1.0
      ],
      "type": "VEC3"
    },
    {
      "bufferView": 1,
      "byteOffset": 14976,
      "componentType": 5126,
      "count": 1936,
      "max": [
        1.0,
        0.9999970197677612
      ],
      "min": [
        0.0,
        0.0
      ],
      "type": "VEC2"
    },
    {
      "bufferView": 0,
      "byteOffset": 14208,
      "componentType": 5125,
      "count": 3672,
      "type": "SCALAR"
    },
    {
      "bufferView": 2,
      "byteOffset": 91392,
      "componentType": 5126,
      "count": 1920,
      "max": [
        3.6522457599639893,
        1.0103436708450317,
        1.5000083446502686
      ],
      "min": [
        -3.647754430770874,
        -0.9895853400230408,
        -1.499662160873413
      ],
      "type": "VEC3"
    },
    {
      "bufferView": 2,
      "byteOffset": 114432,
      "componentType": 5126,
      "count": 1920,
      "max": [
        1.0,
        0.9951847195625305,
        0.9951847791671753
      ],
      "min": [
        -1.0,
        -0.9951847195625305,
        -0.9951848387718201
      ],
      "type": "VEC3"
    },
    {
      "bufferView": 1,
      "byteOffset": 30464,
      "componentType": 5126,
      "count": 1920,
      "max": [
        1.0,
        1.0
      ],
      "min": [
        0.0,
        0.01000000536441803
      ],
      "type": "VEC2"
    },
    {
      "bufferView": 0,
      "byteOffset": 28896,
      "componentType": 5125,
      "count": 3720,
      "type": "SCALAR"
    }
  ],
  "asset": {
    "extras": {
      "author": "HairMetalAddict (https://sketchfab.com/hairmetaladdict)",
      "license": "CC-BY-SA-4.0 (http://creativecommons.org/licenses/by-sa/4.0/)",
      "source": "https://sketchfab.com/3d-models/ikea-tjusig-shoe-rack-948a2d3130ea40fbbb2dc0a676580a28",
      "title": "IKEA TJUSIG Shoe Rack"
    },
    "generator": "Sketchfab-12.66.0",
    "version": "2.0"
  },
  "bufferViews": [
    {
      "buffer": 0,
      "byteLength": 43776,
      "name": "floatBufferViews",
      "target": 34963
    },
    {
      "buffer": 0,
      "byteLength": 45824,
      "byteOffset": 43776,
      "byteStride": 8,
      "name": "floatBufferViews",
      "target": 34962
    },
    {
      "buffer": 0,
      "byteLength": 137472,
      "byteOffset": 89600,
      "byteStride": 12,
      "name": "floatBufferViews",
      "target": 34962
    }
  ],
  "buffers": [
    {
      "byteLength": 227072,
      "uri": "scene.bin"
    }
  ],
  "materials": [
    {
      "doubleSided": true,
      "name": "Screw_Grey",
      "pbrMetallicRoughness": {
        "baseColorFactor": [
          0.510873,
          0.510873,
          0.510873,
          1.0
        ],
        "roughnessFactor": 0.7
      }
    },
    {
      "doubleSided": true,
      "name": "Screw_Dark_Grey_-_inner",
      "pbrMetallicRoughness": {
        "baseColorFactor": [
          0.0830927,
          0.0830927,
          0.0830927,
          1.0
        ],
        "metallicFactor": 0.0,
        "roughnessFactor": 0.5
      }
    },
    {
      "doubleSided": true,
      "name": "Wood_-_Black",
      "pbrMetallicRoughness": {
        "baseColorFactor": [
          0.00781666,
          0.00280726,
          0.00131132,
          1.0
        ],
        "metallicFactor": 0.0,
        "roughnessFactor": 0.85
      }
    },
    {
      "doubleSided": true,
      "name": "Material.002",
      "pbrMetallicRoughness": {
        "baseColorFactor": [
          0.8,
          0.8,
          0.8,
          1.0
        ],
        "roughnessFactor": 0.545455
      }
    }
  ],
  "meshes": [
    {
      "name": "Object_0",
      "primitives": [
        {
          "attributes": {
            "NORMAL": 1,
            "POSITION": 0,
            "TEXCOORD_0": 2
          },
          "indices": 3,
          "material": 0,
          "mode": 4
        }
      ]
    },
    {
      "name": "Object_1",
      "primitives": [
        {
          "attributes": {
            "NORMAL": 5,
            "POSITION": 4,
            "TEXCOORD_0": 6
          },
          "indices": 7,
          "material": 1,
          "mode": 4
        }
      ]
    },
    {
      "name": "Object_2",
      "primitives": [
        {
          "attributes": {
            "NORMAL": 9,
            "POSITION": 8,
            "TEXCOORD_0": 10
          },
          "indices": 11,
          "material": 2,
          "mode": 4
        }
      ]
    },
    {
      "name": "Object_3",
      "primitives": [
        {
          "attributes": {
            "NORMAL": 13,
            "POSITION": 12,
            "TEXCOORD_0": 14
          },
          "indices": 15,
          "material": 3,
          "mode": 4
        }
      ]
    }
  ],
  "nodes": [
    {
      "children": [
        1
      ],
      "matrix": [
        1.0,
        0.0,
        0.0,
        0.0,
        0.0,
        2.220446049250313e-16,
        -1.0,
        0.0,
        0.0,
        1.0,
        2.220446049250313e-16,
        0.0,
        0.0,
        0.0,
        0.0,
        1.0
      ],
      "name": "Sketchfab_model"
    },
    {
      "children": [
        2
      ],
      "name": "root"
    },
    {
      "children": [
        3
      ],
      "matrix": [
        1.0,
        0.0,
        0.0,
        0.0,
        0.0,
        2.220446049250313e-16,
        1.0,
        0.0,
        0.0,
        -1.0,
        2.220446049250313e-16,
        0.0,
        0.0,
        0.0,
        0.0,
        1.0
      ],
      "name": "GLTF_SceneRootNode"
    },
    {
      "children": [
        4,
        5,
        6,
        7
      ],
      "matrix": [
        -0.999999999999996,
        0.0,
        8.742277657347569e-08,
        0.0,
        0.0,
        1.0,
        0.0,
        0.0,
        -8.742277657347569e-08,
        0.0,
        -0.999999999999996,
        0.0,
        -3.75056529045105,
        2.139461040496826,
        -1.3998684883117676,
        1.0
      ],
      "name": "IKEA Skohylla TJUSIG_0"
    },
    {
      "mesh": 0,
      "name": "Object_4"
    },
    {
      "mesh": 1,
      "name": "Object_5"
    },
    {
      "mesh": 2,
      "name": "Object_6"
    },
    {
      "mesh": 3,
      "name": "Object_7"
    }
  ],
  "scene": 0,
  "scenes": [
    {
      "name": "Sketchfab_Scene",
      "nodes": [
        0
      ]
    }
  ]
}
