{
  "accessors": [
    {
      "bufferView": 2,
      "componentType": 5126,
      "count": 6318,
      "max": [
        0.7509320378303528,
        0.6862123012542725,
        -1.5802677869796753
      ],
      "min": [
        -0.5778887271881104,
        -0.6269240975379944,
        -2.3765604496002197
      ],
      "type": "VEC3"
    },
    {
      "bufferView": 2,
      "byteOffset": 75816,
      "componentType": 5126,
      "count": 6318,
      "max": [
        0.9994710683822632,
        0.9996606111526489,
        0.9989907145500183
      ],
      "min": [
        -0.999251127243042,
        -0.9997978806495667,
        -1.0
      ],
      "type": "VEC3"
    },
    {
      "bufferView": 3,
      "componentType": 5126,
      "count": 6318,
      "max": [
        0.7622490525245667,
        0.9999966025352478,
        0.99172443151474,
        1.0
      ],
      "min": [
        -0.6999056339263916,
        -0.9928087592124939,
        -0.9999933838844299,
        1.0
      ],
      "type": "VEC4"
    },
    {
      "bufferView": 1,
      "componentType": 5126,
      "count": 6318,
      "max": [
        0.7030504941940308,
        1.0
      ],
      "min": [
        0.0,
        0.0
      ],
      "type": "VEC2"
    },
    {
      "bufferView": 0,
      "componentType": 5125,
      "count": 36456,
      "type": "SCALAR"
    }
  ],
  "asset": {
    "extras": {
      "author": "AleixoAlonso (https://sketchfab.com/AleixoAlonso)",
      "license": "CC-BY-4.0 (http://creativecommons.org/licenses/by/4.0/)",
      "source": "https://sketchfab.com/3d-models/simple-bean-bag-64d111cec3d842f09cbb8c68b1e49c8d",
      "title": "Simple Bean Bag"
    },
    "generator": "Sketchfab-12.67.0",
    "version": "2.0"
  },
  "bufferViews": [
    {
      "buffer": 0,
      "byteLength": 145824,
      "name": "floatBufferViews",
      "target": 34963
    },
    {
      "buffer": 0,
      "byteLength": 50544,
      "byteOffset": 145824,
      "byteStride": 8,
      "name": "floatBufferViews",
      "target": 34962
    },
    {
      "buffer": 0,
      "byteLength": 151632,
      "byteOffset": 196368,
      "byteStride": 12,
      "name": "floatBufferViews",
      "target": 34962
    },
    {
      "buffer": 0,
      "byteLength": 101088,
      "byteOffset": 348000,
      "byteStride": 16,
      "name": "floatBufferViews",
      "target": 34962
    }
  ],
  "buffers": [
    {
      "byteLength": 449088,
      "uri": "scene.bin"
    }
  ],
  "images": [
    {
      "uri": "textures/A_Bean_Bag_baseColor.png"
    },
    {
      "uri": "textures/A_Bean_Bag_metallicRoughness.png"
    },
    {
      "uri": "textures/A_Bean_Bag_normal.png"
    }
  ],
  "materials": [
    {
      "doubleSided": true,
      "name": "A_Bean_Bag",
      "normalTexture": {
        "index": 2
      },
      "occlusionTexture": {
        "index": 1
      },
      "pbrMetallicRoughness": {
        "baseColorTexture": {
          "index": 0
        },
        "metallicRoughnessTexture": {
          "index": 1
        }
      }
    }
  ],
  "meshes": [
    {
      "name": "Cube_A_Bean_Bag_0",
      "primitives": [
        {
          "attributes": {
            "NORMAL": 1,
            "POSITION": 0,
            "TANGENT": 2,
            "TEXCOORD_0": 3
          },
          "indices": 4,
          "material": 0,
          "mode": 4
        }
      ]
    }
  ],
  "nodes": [
    {
      "children": [
        1
      ],
      "matrix": [
        -0.0051856148056685925,
        2.2204161383993632e-16,
        -0.9999865293502808,
        0.0,
        -0.9999865293502808,
        -1.1514377908180756e-18,
        0.0051856148056685925,
        0.0,
        0.0,
        1.0,
        2.220446049250313e-16,
        0.0,
        0.9332906007766724,
        -1.87261082820107e-09,
        1.4280962944030762,
        1.0
      ],
      "name": "Sketchfab_model"
    },
    {
      "children": [
        2
      ],
      "matrix": [
        1.0,
        0.0,
        0.0,
        0.0,
        0.0,
        0.0,
        1.0,
        0.0,
        0.0,
        -1.0,
        0.0,
        0.0,
        0.0,
        0.0,
        0.0,
        1.0
      ],
      "name": "#CHR0001_Bean_Bag.fbx"
    },
    {
      "children": [
        3
      ],
      "name": "RootNode"
    },
    {
      "children": [
        4
      ],
      "matrix": [
        0.5939744337897722,
        -1.7737617686778797e-17,
        0.23579330151950548,
        0.0,
        0.23579330151950526,
        -2.793442053933516e-08,
        -0.5939744337897717,
        0.0,
        1.0306852957049444e-08,
        0.6390650272369378,
        -2.5963448105890252e-08,
        0.0,
        1.1164523363113403,
        1.52060067653656,
        0.24773579835891724,
        1.0
      ],
      "name": "Cube"
    },
    {
      "mesh": 0,
      "name": "Cube_A_Bean_Bag_0"
    }
  ],
  "samplers": [
    {
      "magFilter": 9729,
      "minFilter": 9987,
      "wrapS": 10497,
      "wrapT": 10497
    }
  ],
  "scene": 0,
  "scenes": [
    {
      "name": "Sketchfab_Scene",
      "nodes": [
        0
      ]
    }
  ],
  "textures": [
    {
      "sampler": 0,
      "source": 0
    },
    {
      "sampler": 0,
      "source": 1
    },
    {
      "sampler": 0,
      "source": 2
    }
  ]
}
